<?xml version="1.0" standalone="no"?>
<!DOCTYPE svg PUBLIC "-//W3C//DTD SVG 20010904//EN"
 "http://www.w3.org/TR/2001/REC-SVG-20010904/DTD/svg10.dtd">
<svg version="1.0" xmlns="http://www.w3.org/2000/svg"
 width="256.000000pt" height="256.000000pt" viewBox="0 0 256.000000 256.000000"
 preserveAspectRatio="xMidYMid meet">
<metadata>
Created by potrace 1.14, written by Peter Selinger 2001-2017
</metadata>
<g transform="translate(0.000000,256.000000) scale(0.100000,-0.100000)"
fill="#000000" stroke="none">
<path d="M1134 2069 c-78 -13 -203 -56 -259 -88 -172 -100 -252 -246 -243
-443 5 -114 26 -166 99 -243 91 -97 188 -138 486 -210 246 -60 303 -90 305
-163 2 -48 -13 -71 -60 -99 -43 -26 -57 -28 -174 -32 -178 -4 -306 26 -477
113 l-66 34 -73 -162 -72 -161 22 -17 c37 -28 185 -87 284 -113 197 -51 464
-58 627 -16 181 47 319 151 386 290 35 74 36 78 36 196 0 110 -3 125 -28 176
-53 110 -180 200 -352 249 -39 11 -139 36 -223 55 -234 53 -282 81 -282 163 0
36 6 50 33 77 44 44 101 59 227 59 122 -1 231 -25 349 -80 41 -19 78 -31 82
-27 5 5 37 78 72 165 l65 156 -67 30 c-89 41 -186 70 -295 87 -98 16 -318 18
-402 4z"/>
</g>
</svg>
